<svg width="472" height="472" viewBox="0 0 472 472" fill="none" xmlns="http://www.w3.org/2000/svg">
<path d="M251.643 410.937C262.544 391.918 263.19 368.701 253.363 349.105L243.179 328.649L237.683 319.001L224.683 327.905L228.859 335.809L239.091 356.257C246.515 371.072 246.028 388.62 237.795 403.001C226.045 423.587 226.315 448.91 238.499 469.241L240.155 472.001H258.811L252.219 461.009C242.997 445.647 242.777 426.506 251.643 410.937Z" fill="#A2A9B0"/>
<path d="M235.979 303.793L79.315 147.145C45.665 113.481 45.677 58.9121 79.341 25.2621C81.368 23.2351 83.496 21.3111 85.715 19.4971C122.554 -10.6369 176.846 -5.20195 206.98 31.6371C207.265 31.9851 207.547 32.3361 207.827 32.6891L235.979 68.2331L264.131 32.6891C293.673 -4.62595 347.872 -10.9279 385.187 18.6151C385.555 18.9061 385.92 19.2001 386.283 19.4971C423.131 49.6261 428.578 103.923 398.448 140.771C396.633 142.99 394.709 145.118 392.683 147.145L235.979 303.793Z" fill="#F8791E"/>
<path d="M235.979 303.793L211.979 332.233H259.979L235.979 303.793Z" fill="#F8791E"/>
<path d="M121.155 38.169L126.803 53.145C131.013 51.552 135.478 50.739 139.979 50.745V34.745C133.549 34.741 127.172 35.901 121.155 38.169Z" fill="#F8D763"/>
<path d="M113.635 61.657L102.323 50.345C81.554 71.153 81.554 104.849 102.323 125.657L118.323 141.657L129.635 130.345L113.635 114.345C99.117 99.783 99.117 76.219 113.635 61.657Z" fill="#F8D763"/>
<path d="M386.283 19.497C374.144 9.56399 359.511 3.15499 343.979 0.968994C307.867 134.961 227.539 202.281 167.179 234.985L235.979 303.785L392.643 147.145C426.303 113.491 426.307 58.922 392.653 25.262C390.627 23.236 388.501 21.311 386.283 19.497Z" fill="#DD6F31"/>
</svg>
