<svg width="512" height="512" viewBox="0 0 512 512" fill="none" xmlns="http://www.w3.org/2000/svg">
<path d="M256 512C251.796 512 248.389 508.593 248.389 504.389V435.21C248.389 431.005 251.797 427.598 256 427.598C260.203 427.598 263.611 431.005 263.611 435.21V504.389C263.611 508.593 260.205 512 256 512Z" fill="#D3CDBF"/>
<path d="M256 376.029C238.578 382.908 224.921 397.258 218.979 415.131C215.696 425.008 223.008 435.21 233.415 435.21H278.584C288.991 435.21 296.304 425.007 293.02 415.131C287.079 397.257 273.422 382.908 256 376.029Z" fill="#BF90E4"/>
<path d="M293.053 415.227C287.301 397.829 274.23 383.779 257.499 376.668C256.661 383.588 257.271 390.598 259.238 397.28C261.455 404.807 255.95 412.374 248.103 412.374H219.98C219.596 413.371 219.223 414.371 218.891 415.392C215.714 425.182 223.121 435.208 233.414 435.208H278.583C288.949 435.209 296.306 425.069 293.053 415.227Z" fill="#C777D4"/>
<path d="M256 0C171.925 0 103.77 68.155 103.77 152.23C103.77 253.895 166.847 340.828 256 376.029C345.153 340.827 408.23 253.896 408.23 152.23C408.23 68.155 340.075 0 256 0Z" fill="#BF90E4"/>
<path d="M333.774 21.3521C347.331 44.1151 355.126 70.7081 355.126 99.1261C355.126 178.986 316.206 249.753 256.3 293.499C224.751 316.537 181.868 316.945 150.231 294.026C150.068 293.907 149.904 293.79 149.742 293.671C176.428 330.313 213.207 359.133 256 376.029C345.153 340.827 408.23 253.896 408.23 152.23C408.23 96.574 378.356 47.9021 333.774 21.3521Z" fill="#C777D5"/>
<path d="M271.223 383.641H240.777C236.573 383.641 233.166 380.234 233.166 376.029C233.166 371.824 236.574 368.418 240.777 368.418H271.223C275.427 368.418 278.834 371.825 278.834 376.029C278.834 380.234 275.428 383.641 271.223 383.641Z" fill="#C777D5"/>
</svg>
