<?xml version="1.0" encoding="iso-8859-1"?>
<!-- Generator: Adobe Illustrator 19.0.0, SVG Export Plug-In . SVG Version: 6.00 Build 0)  -->
<svg version="1.1" id="Capa_1" xmlns="http://www.w3.org/2000/svg" xmlns:xlink="http://www.w3.org/1999/xlink" x="0px" y="0px"
	 viewBox="0 0 512 512" style="enable-background:new 0 0 512 512;" xml:space="preserve">
<path style="fill:#D3CDBF;" d="M256,512c-4.204,0-7.611-3.407-7.611-7.611v-69.179c0-4.205,3.408-7.612,7.611-7.612
	s7.611,3.407,7.611,7.612v69.179C263.611,508.593,260.205,512,256,512z"/>
<path style="fill:#FF6473;" d="M256,376.029c-17.422,6.879-31.079,21.229-37.021,39.102c-3.283,9.877,4.029,20.079,14.436,20.079
	h45.169c10.407,0,17.72-10.203,14.436-20.079C287.079,397.257,273.422,382.908,256,376.029z"/>
<path style="fill:#FF5368;" d="M293.053,415.227c-5.752-17.398-18.823-31.448-35.554-38.559c-0.838,6.92-0.228,13.93,1.739,20.612
	c2.217,7.527-3.288,15.094-11.135,15.094H219.98c-0.384,0.997-0.757,1.997-1.089,3.018c-3.177,9.79,4.23,19.816,14.523,19.816
	h45.169C288.949,435.209,296.306,425.069,293.053,415.227z"/>
<path style="fill:#FF6473;" d="M256,0c-84.075,0-152.23,68.155-152.23,152.23c0,101.665,63.077,188.598,152.23,223.799
	c89.153-35.202,152.23-122.133,152.23-223.799C408.23,68.155,340.075,0,256,0z"/>
<g>
	<path style="fill:#FF5368;" d="M333.774,21.352c13.557,22.763,21.352,49.356,21.352,77.774c0,79.86-38.92,150.627-98.826,194.373
		c-31.549,23.038-74.432,23.446-106.069,0.527c-0.163-0.119-0.327-0.236-0.489-0.355c26.686,36.642,63.465,65.462,106.258,82.358
		c89.153-35.202,152.23-122.133,152.23-223.799C408.23,96.574,378.356,47.902,333.774,21.352z"/>
	<path style="fill:#FF5368;" d="M271.223,383.641h-30.446c-4.204,0-7.611-3.407-7.611-7.612c0-4.205,3.408-7.611,7.611-7.611h30.446
		c4.204,0,7.611,3.407,7.611,7.611C278.834,380.234,275.428,383.641,271.223,383.641z"/>
</g>
<g>
</g>
<g>
</g>
<g>
</g>
<g>
</g>
<g>
</g>
<g>
</g>
<g>
</g>
<g>
</g>
<g>
</g>
<g>
</g>
<g>
</g>
<g>
</g>
<g>
</g>
<g>
</g>
<g>
</g>
</svg>
