<svg width="35" height="35" viewBox="0 0 35 35" fill="none" xmlns="http://www.w3.org/2000/svg">
<g clip-path="url(#clip0)">
<path d="M17.5 0C14.0388 0 10.6554 1.02636 7.77751 2.94928C4.89965 4.87221 2.65663 7.60533 1.3321 10.803C0.00756725 14.0007 -0.338991 17.5194 0.33625 20.9141C1.01149 24.3087 2.6782 27.4269 5.12562 29.8744C7.57304 32.3218 10.6912 33.9885 14.0859 34.6637C17.4806 35.339 20.9992 34.9924 24.1969 33.6679C27.3947 32.3434 30.1278 30.1003 32.0507 27.2225C33.9736 24.3446 35 20.9612 35 17.5C34.995 12.8602 33.1497 8.4119 29.8689 5.13109C26.5881 1.85027 22.1398 0.00494119 17.5 0V0ZM17.5 30.625C14.9041 30.625 12.3665 29.8552 10.2081 28.413C8.04974 26.9708 6.36747 24.921 5.37407 22.5227C4.38067 20.1244 4.12075 17.4854 4.62718 14.9394C5.13362 12.3934 6.38365 10.0548 8.21921 8.21922C10.0548 6.38366 12.3934 5.13362 14.9394 4.62719C17.4854 4.12076 20.1244 4.38068 22.5227 5.37408C24.921 6.36748 26.9708 8.04975 28.413 10.2081C29.8552 12.3665 30.625 14.9041 30.625 17.5C30.6212 20.9798 29.2372 24.316 26.7766 26.7766C24.316 29.2372 20.9798 30.6212 17.5 30.625V30.625Z" fill="#C30F1C"/>
<path d="M23.4216 11.5784C23.2186 11.3752 22.9775 11.214 22.7121 11.1041C22.4467 10.9941 22.1623 10.9375 21.875 10.9375C21.5877 10.9375 21.3033 10.9941 21.0379 11.1041C20.7725 11.214 20.5314 11.3752 20.3284 11.5784L17.5 14.4067L14.6716 11.5784C14.261 11.1701 13.7053 10.9412 13.1263 10.942C12.5472 10.9428 11.9921 11.1732 11.5827 11.5827C11.1732 11.9921 10.9428 12.5472 10.942 13.1263C10.9412 13.7053 11.1701 14.261 11.5784 14.6716L14.4067 17.5L11.5784 20.3284C11.3743 20.5313 11.2123 20.7724 11.1017 21.0381C10.991 21.3037 10.9338 21.5885 10.9334 21.8763C10.933 22.164 10.9894 22.449 11.0993 22.7149C11.2093 22.9809 11.3706 23.2225 11.5741 23.4259C11.7775 23.6294 12.0191 23.7907 12.2851 23.9007C12.551 24.0106 12.836 24.067 13.1237 24.0666C13.4115 24.0662 13.6963 24.009 13.9619 23.8983C14.2276 23.7877 14.4687 23.6257 14.6716 23.4216L17.5 20.5933L20.3284 23.4216C20.7389 23.8299 21.2947 24.0588 21.8737 24.058C22.4528 24.0572 23.0079 23.8268 23.4173 23.4173C23.8268 23.0079 24.0572 22.4528 24.058 21.8737C24.0588 21.2947 23.8299 20.739 23.4216 20.3284L20.5933 17.5L23.4216 14.6716C23.6248 14.4686 23.786 14.2274 23.8959 13.9621C24.0059 13.6967 24.0625 13.4123 24.0625 13.125C24.0625 12.8377 24.0059 12.5533 23.8959 12.2879C23.786 12.0225 23.6248 11.7814 23.4216 11.5784V11.5784Z" fill="#C30F1C"/>
</g>
<defs>
<clipPath id="clip0">
<rect width="35" height="35" fill="white"/>
</clipPath>
</defs>
</svg>
