<svg width="200" height="171" viewBox="0 0 200 171" fill="none" xmlns="http://www.w3.org/2000/svg">
<path d="M65.896 26.0541C74.3669 13.6284 88.021 5.287 103.299 3.2046C132.312 -0.749999 158.899 18.5417 162.681 46.2938C163.033 48.8748 163.176 51.4802 163.11 54.0868" stroke="#F18D29" stroke-width="3.5278" stroke-miterlimit="22.9256"/>
<path fill-rule="evenodd" clip-rule="evenodd" d="M50.4822 126.51C55.972 126.209 71.8964 118.112 93.5865 121.16C106.779 123.015 130.142 125.743 132.647 125.646C138.387 125.548 157.123 122.795 158.902 119.225C153.327 120.844 145.18 121.627 139.424 121.592C119.321 121.486 100.145 115.635 79.0798 115.497C68.4121 115.427 62.973 118.594 54.4251 123.346C52.6891 124.31 51.5682 124.915 50.4822 126.51V126.51Z" fill="#8F8F8F"/>
<path d="M167.357 132.279C166.19 132.279 165.24 131.901 164.507 131.145C163.774 130.388 163.408 129.45 163.408 128.331C163.408 127.211 163.774 126.273 164.507 125.516C165.24 124.76 166.19 124.382 167.357 124.382C168.524 124.382 169.474 124.745 170.206 125.471C170.939 126.197 171.305 127.105 171.305 128.194C171.305 129.374 170.939 130.35 170.206 131.122C169.474 131.893 168.524 132.279 167.357 132.279V132.279Z" fill="#F18D29"/>
<path d="M18.2372 127.432C21.0542 127.432 23.4925 127.902 25.5522 128.841C27.6422 129.78 29.2475 131.112 30.3683 132.839C31.489 134.565 32.0493 136.61 32.0493 138.972C32.0493 141.305 31.489 143.349 30.3683 145.106C29.2475 146.833 27.6422 148.165 25.5522 149.104C23.4925 150.013 21.0542 150.467 18.2372 150.467H11.8309V159.236H4.47053V127.432H18.2372ZM17.8283 144.47C20.0395 144.47 21.7205 144.001 22.8715 143.062C24.0226 142.092 24.5981 140.729 24.5981 138.972C24.5981 137.185 24.0226 135.822 22.8715 134.883C21.7205 133.914 20.0395 133.429 17.8283 133.429H11.8309V144.47H17.8283Z" fill="#F18D29"/>
<path d="M60.6736 147.105C60.6736 147.196 60.6281 147.832 60.5373 149.014H42.0454C42.3786 150.528 43.1661 151.724 44.408 152.603C45.6499 153.481 47.1946 153.92 49.0423 153.92C50.3145 153.92 51.4352 153.739 52.4045 153.375C53.404 152.981 54.3279 152.376 55.176 151.558L58.9471 155.647C56.645 158.282 53.2829 159.6 48.8606 159.6C46.1042 159.6 43.6659 159.07 41.5456 158.01C39.4253 156.919 37.7897 155.42 36.6387 153.512C35.4877 151.603 34.9122 149.438 34.9122 147.014C34.9122 144.622 35.4725 142.471 36.5932 140.563C37.7442 138.624 39.3042 137.125 41.273 136.065C43.2721 134.974 45.4984 134.429 47.9519 134.429C50.3448 134.429 52.5105 134.944 54.449 135.974C56.3876 137.004 57.9021 138.488 58.9925 140.426C60.1132 142.335 60.6736 144.561 60.6736 147.105ZM47.9973 139.79C46.392 139.79 45.0441 140.245 43.9536 141.153C42.8632 142.062 42.1968 143.304 41.9545 144.879H53.9947C53.7524 143.334 53.086 142.107 51.9956 141.199C50.9051 140.26 49.5724 139.79 47.9973 139.79Z" fill="#F18D29"/>
<path d="M73.6231 159.6C71.5937 159.6 69.6097 159.357 67.6712 158.873C65.7327 158.358 64.1879 157.722 63.0369 156.965L65.3995 151.876C66.4899 152.573 67.8075 153.148 69.3523 153.602C70.8971 154.026 72.4115 154.239 73.8957 154.239C76.8944 154.239 78.3938 153.496 78.3938 152.012C78.3938 151.316 77.9848 150.816 77.167 150.513C76.3492 150.21 75.0922 149.953 73.396 149.74C71.3968 149.438 69.746 149.089 68.4436 148.696C67.1411 148.302 66.0053 147.605 65.036 146.606C64.097 145.606 63.6275 144.182 63.6275 142.335C63.6275 140.79 64.0667 139.427 64.9451 138.246C65.8538 137.034 67.1563 136.095 68.8525 135.429C70.579 134.762 72.6084 134.429 74.9407 134.429C76.6672 134.429 78.3786 134.626 80.0748 135.02C81.8014 135.383 83.225 135.898 84.3457 136.564L81.9831 141.608C79.8325 140.396 77.4851 139.79 74.9407 139.79C73.4262 139.79 72.2904 140.002 71.5331 140.426C70.7759 140.85 70.3973 141.396 70.3973 142.062C70.3973 142.819 70.8062 143.349 71.624 143.652C72.4418 143.955 73.7443 144.243 75.5314 144.516C77.5305 144.849 79.1661 145.212 80.4383 145.606C81.7105 145.969 82.8161 146.651 83.755 147.651C84.694 148.65 85.1635 150.043 85.1635 151.83C85.1635 153.345 84.7092 154.693 83.8005 155.874C82.8918 157.055 81.559 157.979 79.8022 158.646C78.0757 159.282 76.016 159.6 73.6231 159.6Z" fill="#F18D29"/>
<path d="M101.339 159.6C98.7338 159.6 96.3863 159.07 94.2963 158.01C92.2366 156.919 90.6161 155.42 89.4348 153.512C88.2838 151.603 87.7083 149.438 87.7083 147.014C87.7083 144.591 88.2838 142.426 89.4348 140.517C90.6161 138.609 92.2366 137.125 94.2963 136.065C96.3863 134.974 98.7338 134.429 101.339 134.429C103.913 134.429 106.155 134.974 108.063 136.065C110.002 137.125 111.41 138.654 112.288 140.654L106.791 143.607C105.519 141.365 103.686 140.245 101.293 140.245C99.4456 140.245 97.9159 140.85 96.7044 142.062C95.4928 143.274 94.887 144.924 94.887 147.014C94.887 149.104 95.4928 150.755 96.7044 151.967C97.9159 153.178 99.4456 153.784 101.293 153.784C103.716 153.784 105.549 152.663 106.791 150.422L112.288 153.421C111.41 155.359 110.002 156.874 108.063 157.964C106.155 159.055 103.913 159.6 101.339 159.6Z" fill="#F18D29"/>
<path d="M126.237 134.14C130.024 134.14 132.932 135.041 134.961 136.843C136.991 138.646 138.005 141.364 138.005 144.999V158.948H131.372V155.904C130.039 158.175 127.555 159.311 123.92 159.311C122.042 159.311 120.414 158.993 119.036 158.357C117.658 157.721 116.605 156.843 115.878 155.722C115.151 154.601 114.788 153.329 114.788 151.905C114.788 149.634 115.643 147.846 117.355 146.544C119.066 145.241 121.709 144.59 125.283 144.59H130.917C130.917 143.045 130.448 141.856 129.509 141.024C128.57 140.191 127.161 139.774 125.283 139.774C123.981 139.774 122.705 139.992 121.444 140.387C121.303 140.432 120.954 140.54 120.464 140.694L116.737 136.414C118.148 135.63 118.132 135.635 120.49 134.912C122.338 134.346 124.269 134.14 126.237 134.14V134.14ZM125.692 154.541C126.904 154.541 127.979 154.26 128.918 153.7C129.857 153.14 130.524 152.314 130.917 151.224V148.725H126.056C123.148 148.725 121.694 149.679 121.694 151.587C121.694 152.496 122.05 153.215 122.762 153.746C123.474 154.276 124.45 154.541 125.692 154.541V154.541Z" fill="#F18D29"/>
<path d="M151.181 138.018C152.029 136.837 153.165 135.944 154.589 135.338C156.043 134.732 157.709 134.429 159.587 134.429V140.972C158.799 140.911 158.269 140.881 157.996 140.881C155.967 140.881 154.377 141.456 153.226 142.607C152.075 143.728 151.499 145.424 151.499 147.696V159.236H144.411V134.793H151.181V138.018Z" fill="#F18D29"/>
<path d="M163.813 134.9H170.901V159.344H163.813V134.9Z" fill="#F18D29"/>
<path d="M187.348 133.96C191.134 133.96 194.042 134.861 196.072 136.663C198.101 138.466 199.116 141.184 199.116 144.819V158.768H192.482V155.724C191.15 157.995 188.666 159.131 185.031 159.131C183.153 159.131 181.525 158.813 180.147 158.177C178.769 157.541 177.716 156.663 176.989 155.542C176.262 154.421 175.898 153.149 175.898 151.725C175.898 149.453 176.754 147.666 178.466 146.364C180.177 145.061 182.82 144.41 186.394 144.41H192.028C192.028 142.865 191.559 141.676 190.62 140.843C189.681 140.01 188.272 139.594 186.394 139.594C185.092 139.594 183.812 139.799 182.555 140.207C182.293 140.292 182.286 140.287 181.9 140.44L178.074 136.128C179.642 135.333 179.636 135.283 181.601 134.732C183.461 134.21 185.379 133.96 187.348 133.96V133.96ZM186.803 154.36C188.015 154.36 189.09 154.08 190.029 153.52C190.968 152.96 191.634 152.134 192.028 151.044V148.545H187.167C184.259 148.545 182.805 149.499 182.805 151.407C182.805 152.316 183.161 153.035 183.872 153.565C184.584 154.095 185.561 154.36 186.803 154.36V154.36Z" fill="#F18D29"/>
<path d="M48 76L65 55.5L76 51.5L87.5 48.5L99.5 46.5L111.5 45.5L122.5 46L134 47.5L145.5 50L157 53.5L153.5 76L149.5 68.5L150 77L146.5 83L138.5 90H121.5L105 87L73.5 79L60 76H48Z" fill="white" stroke="white"/>
<path fill-rule="evenodd" clip-rule="evenodd" d="M143.452 68.3439C134.502 72.7326 117.715 72.6084 106.914 71.6724C81.2514 69.447 82.4059 72.7094 69.2861 72.8733C94.4184 64.6098 102.478 68.6261 123.746 69.0614C130.563 69.2012 136.93 68.295 143.452 68.3439V68.3439Z" fill="#3B457B"/>
<path fill-rule="evenodd" clip-rule="evenodd" d="M196.102 73.6066C195.689 75.8359 194.304 76.589 193.068 77.9926L195.644 80.0125C193.371 81.6792 192.497 83.7734 189.475 85.7601C181.843 90.777 171.647 93.2491 162.112 94.0965C130.63 96.8935 115.055 90.5404 93.0298 88.4938C72.7347 86.608 58.2095 88.6262 34.1712 112.358C32.5643 102.327 33.1891 89.0287 2.57153 97.7369L9.50593 91.6214C46.6507 60.8049 83.4967 84.3732 112.146 88.8603C123.907 90.7019 144.081 91.4257 154.815 87.0262C151.947 82.8608 149.213 75.8361 149.492 68.9631L151.657 72.4504C159.727 92.9171 176.769 91.7384 194.506 79.9897C188.192 79.931 180.957 83.8667 172.677 82.4141C173.308 81.6552 181.494 77.5228 182.96 76.8373C186.737 75.0738 190.924 73.6261 196.102 73.6066V73.6066Z" fill="#3A4783"/>
<path fill-rule="evenodd" clip-rule="evenodd" d="M54.8364 54.3875C57.7549 53.543 65.2549 43.1625 66.4688 38.8726C69.6382 27.6643 60.8455 24.7672 60.182 20.3472C63.7424 20.5214 86.103 32.3127 91.4172 34.6246C106.011 40.9728 114.957 39.4325 130.984 42.7138C143.537 45.2842 156.532 49.1156 166.533 54.1995C175.106 58.5562 188.306 66.4917 192.526 72.6887C187.936 70.1033 183.386 66.6332 178.235 63.6733C105.831 22.0747 51.9923 63.6853 46.53 64.8441C47.7879 63.3253 52.0645 59.9768 54.2007 58.6313C57.0168 56.8565 59.7109 55.315 62.5386 53.7548C65.0091 52.3904 79.5934 46.0436 80.1393 45.3664C59.806 50.122 61.3975 52.6165 54.8364 54.3875V54.3875Z" fill="#3A4783"/>
<path fill-rule="evenodd" clip-rule="evenodd" d="M38.4316 125.832C41.7948 123.902 44.6259 119.552 54.5123 114.933C69.4215 107.967 78.9154 109.727 93.315 111.782C107.503 113.807 127.259 116.31 140.565 116.412C158.704 115.821 180.08 112.674 191.677 96.8744C185.423 102.72 164.247 109.716 155.361 110.253C142.126 111.091 122.689 109.575 110.544 106.767C98.3443 103.946 80.0889 101.524 67.0175 104.544C56.315 107.017 41.215 117.829 38.4316 125.832V125.832Z" fill="#8F8F8F"/>
</svg>
