<svg width="78" height="78" viewBox="0 0 78 78" fill="none" xmlns="http://www.w3.org/2000/svg">
<path d="M34.8187 7.02187C9.71928 25.0219 20.261 51.5219 20.261 51.5219C7.71132 48.0219 1.68747 30.5219 1.68747 30.5219L3.19343 25.0219H8.7153L11.2252 20.0219L8.7153 15.5219L14.7392 10.0219L19.2571 12.5219L23.7749 9.02187V3.02188L33.8147 1.52188L34.8187 7.02187Z" fill="white" stroke="white" stroke-linejoin="round"/>
<path d="M41.065 71.7368C66.4566 54.148 56.3513 27.4799 56.3513 27.4799C68.8418 31.1838 74.5776 48.7796 74.5776 48.7796L72.9815 54.2543L67.4604 54.1644L64.8687 59.1228L67.3044 63.6631L61.1911 69.0643L56.7148 66.491L52.1401 69.917L52.0416 75.9162L41.9785 77.2524L41.065 71.7368Z" fill="white" stroke="white" stroke-linejoin="round"/>
<path d="M71.2292 37.9901C56.2252 11.052 28.5673 18.3724 28.5673 18.3724C33.5285 6.369 51.6832 2.46231 51.6832 2.46231L56.9904 4.59685L56.343 10.0589L61.0339 13.1279L65.8149 11.1728L70.5924 17.7763L67.5701 21.9521L70.53 26.8315L76.5123 27.535L76.8307 37.6419L71.2292 37.9901Z" fill="#C30F1C" stroke="#C30F1C" stroke-linejoin="round"/>
<path d="M6.53818 44.0232C25.175 67.041 51.644 56.6296 51.644 56.6296C48.3756 68.4115 30.877 74.4124 30.877 74.4124L25.3081 73.1279L25.1955 67.9775L20.1096 65.7456L15.6295 68.185L9.96851 62.6865L12.3937 58.4179L8.77729 54.2803L2.73565 54.4114L1.02048 45.0798L6.53818 44.0232Z" fill="#C30F1C" stroke="#C30F1C" stroke-linejoin="round"/>
</svg>
