<svg width="512" height="512" viewBox="0 0 512 512" fill="none" xmlns="http://www.w3.org/2000/svg">
<path d="M256.001 32C182.001 32 121.801 90.7 121.801 164.7C121.801 181.1 125.301 199 131.601 215.1H131.501L132.101 216.3C132.601 217.4 133.101 218.5 133.601 219.6L256.001 480L377.801 220.9L378.401 219.7C378.901 218.6 379.501 217.5 380.001 216.3L380.401 215.2C386.901 199.1 390.201 182.1 390.201 164.9C390.201 90.7 330.001 32 256.001 32ZM365.101 209.4L364.901 209.9C364.601 210.5 364.301 211.2 364.001 211.8L363.001 213.9L256.001 441.3L148.901 213.9L148.001 211.9C147.701 211.3 147.401 210.7 147.201 210.1C141.301 195.6 138.101 179.5 138.101 164.7C138.101 99.7 191.001 48.2 256.101 48.2C321.201 48.2 374.101 99.6 374.101 164.7C374.001 179.9 371.001 194.9 365.101 209.4Z" fill="#C3252C"/>
<path d="M256 96C220.7 96 192 124.7 192 160C192 195.3 220.7 224 256 224C291.3 224 320 195.3 320 160C320 124.7 291.3 96 256 96Z" fill="#C3252C"/>
</svg>
