<?xml version="1.0" ?>
<!DOCTYPE svg PUBLIC '-//W3C//DTD SVG 1.1//EN' 'http://www.w3.org/Graphics/SVG/1.1/DTD/svg11.dtd'><svg
	enable-background="new 0 0 141.732 141.732" height="141.732px" id="Livello_1" version="1.1"
	viewBox="0 0 141.732 141.732" width="141.732px" xml:space="preserve" xmlns="http://www.w3.org/2000/svg"
	xmlns:xlink="http://www.w3.org/1999/xlink">
	<g id="Livello_16">
		<path
			d="M95.098,110.393v-86.16C95.098,10.849,84.25,0,70.867,0s-24.233,10.85-24.233,24.232v96.93   c0,10.409,8.438,18.851,18.852,18.851c10.406,0,18.847-8.438,18.847-18.851v-86.16c0-7.435-6.027-13.462-13.462-13.462   c-7.438,0-13.463,6.027-13.463,13.462v75.395c0,1.482,1.206,2.688,2.69,2.688c1.486,0,2.691-1.206,2.691-2.688V35.002   c0-4.461,3.617-8.073,8.078-8.073s8.077,3.612,8.077,8.073v86.16c0,7.438-6.026,13.462-13.462,13.462   c-7.438,0-13.463-6.023-13.463-13.462V39.458V24.232c0-10.409,8.438-18.848,18.848-18.848c10.409,0,18.848,8.438,18.848,18.848   v15.226v70.938c0,1.482,1.205,2.688,2.691,2.688C93.895,113.085,95.098,111.879,95.098,110.393" />
	</g>
	<g id="Livello_1_1_" />
</svg>